<svg width="157" height="355" viewBox="0 0 157 355" fill="none" xmlns="http://www.w3.org/2000/svg">
<g opacity="0.7">
<path opacity="0.7" d="M156.244 164.032C156.288 150.642 153.077 137.442 146.887 125.566C143.951 119.988 141.272 116.526 139.208 114.394C138.42 113.562 137.39 112.998 136.264 112.782C135.138 112.565 133.972 112.707 132.931 113.187C132.098 113.482 131.346 113.967 130.733 114.603C127.947 117.488 125.429 121.302 123.247 125.357C116.738 137.516 113.362 151.103 113.424 164.892V173.162H108.114V76.9913C108.114 56.8393 103.601 36.9597 94.7465 19.3293C90.5543 10.9736 86.7257 5.78066 83.7901 2.59116C83.0775 1.77946 82.1996 1.1291 81.2153 0.683544C80.2309 0.237989 79.1627 0.00750732 78.082 0.00750732C77.0014 0.00750732 75.9331 0.237989 74.9488 0.683544C73.9644 1.1291 73.0866 1.77946 72.3739 2.59116C68.3956 6.91328 64.8023 12.6298 61.6796 18.7043C52.3809 36.7193 47.6593 57.1705 47.6593 77.9102V173.125H43.0714V164.454C43.1297 150.674 39.754 137.097 33.2487 124.946C31.051 120.891 28.5325 117.076 25.7626 114.191C24.9581 113.338 23.9009 112.764 22.7461 112.554C21.5914 112.345 20.3998 112.51 19.346 113.027L19.5386 113.128C18.867 113.427 18.2589 113.851 17.7472 114.378C15.6886 116.515 13.0097 119.972 10.0741 125.55C3.88362 137.426 0.672418 150.626 0.716513 164.016V307.73H17.1002L15.2929 319.542V354.873H28.6929V319.542L26.9016 307.725H43.0501V176.833H47.6379V307.158H60.7224L58.8456 319.542V354.873H72.2456V319.542L70.3688 307.142H88.0144L86.1268 319.542V354.873H99.5268V319.542L97.65 307.142H108.098V176.849H113.408V307.939H117.713V307.741H131.947L130.161 319.542V354.873H143.561V319.542L141.769 307.725H156.244V164.032Z" fill="url(#paint0_linear_1502_2)"/>
</g>
<path d="M31.3505 312.672H18.6616L20.9288 297.28H29.0833L31.3505 312.672Z" fill="#535461"/>
<g opacity="0.1">
<path opacity="0.1" d="M20.2979 303.392H29.7142L29.0833 299.091H20.9288L20.2979 303.392Z" fill="black"/>
</g>
<path d="M140.085 312.672H127.402L129.663 297.28H137.823L140.085 312.672Z" fill="#535461"/>
<g opacity="0.1">
<path opacity="0.1" d="M129.032 303.392H138.454L137.823 299.091H129.663L129.032 303.392Z" fill="black"/>
</g>
<path d="M72.577 312.672H59.8936L62.1554 297.28H70.3151L72.577 312.672Z" fill="#535461"/>
<g opacity="0.1">
<path opacity="0.1" d="M61.5244 303.392H70.9461L70.3151 299.091H62.1554L61.5244 303.392Z" fill="black"/>
</g>
<path d="M98.404 312.672H85.7205L87.9823 297.28H96.1368L98.404 312.672Z" fill="#535461"/>
<g opacity="0.1">
<path opacity="0.1" d="M87.3516 303.392H96.7732L96.1369 299.091H87.9825L87.3516 303.392Z" fill="black"/>
</g>
<path d="M121.964 170.08H31.3506V173.702H121.964V170.08Z" fill="#535461"/>
<path d="M135.968 112.872C135.489 112.343 134.905 111.921 134.253 111.632C133.601 111.343 132.895 111.194 132.182 111.194C131.469 111.194 130.763 111.343 130.111 111.632C129.459 111.921 128.875 112.343 128.396 112.872C125.76 115.682 123.375 119.395 121.295 123.343C115.125 135.224 111.934 148.424 111.996 161.809V301.164H152.1V161.222C152.15 148.207 149.114 135.366 143.24 123.749C140.454 118.321 137.92 114.923 135.968 112.872Z" fill="#E0E0E0"/>
<path d="M20.9663 112.872C21.445 112.343 22.0292 111.921 22.6813 111.632C23.3333 111.343 24.0388 111.194 24.7521 111.194C25.4654 111.194 26.1709 111.343 26.8229 111.632C27.475 111.921 28.0592 112.343 28.5379 112.872C31.1794 115.682 33.5589 119.395 35.6443 123.343C41.8119 135.225 45.0027 148.425 44.943 161.809V301.164H4.83924V161.222C4.78904 148.207 7.82535 135.366 13.6995 123.749C16.48 118.321 19.0146 114.923 20.9663 112.872Z" fill="#E0E0E0"/>
<path d="M5.06909 164.192L14.587 164.24V175.962H5.06909V164.192Z" fill="#535461"/>
<path d="M35.425 164.192L44.943 164.24V175.962H35.425V164.192Z" fill="#535461"/>
<path d="M111.997 164.192L121.509 164.24V175.962H111.997V164.192Z" fill="#535461"/>
<path d="M142.352 164.192L151.865 164.24V175.962H142.352V164.192Z" fill="#535461"/>
<g opacity="0.1">
<path opacity="0.1" d="M35.6442 123.162C33.5588 119.213 31.1793 115.5 28.5378 112.69C27.792 111.864 26.7954 111.305 25.7009 111.099C24.6065 110.894 23.4747 111.053 22.4795 111.552C23.0527 111.838 23.5705 112.223 24.0088 112.69C26.6449 115.5 29.0298 119.213 31.1098 123.162C37.2803 135.042 40.4712 148.243 40.4086 161.628V300.972H44.943V161.633C45.0037 148.247 41.8129 135.045 35.6442 123.162Z" fill="black"/>
</g>
<g opacity="0.1">
<path opacity="0.1" d="M124.921 123.546C127.001 119.598 129.386 115.885 132.022 113.075C132.515 112.543 133.112 112.117 133.776 111.825C132.796 111.396 131.706 111.286 130.66 111.511C129.614 111.735 128.665 112.282 127.947 113.075C125.306 115.885 122.921 119.598 120.841 123.546C114.673 135.428 111.482 148.628 111.542 162.012V301.378H115.622V162.023C115.558 148.634 118.749 135.43 124.921 123.546Z" fill="black"/>
</g>
<path d="M25.1798 347.078H24.8323C23.1957 347.078 21.6262 346.428 20.469 345.272C19.3117 344.116 18.6616 342.548 18.6616 340.913V312.672H31.3505V340.913C31.3505 342.548 30.7004 344.116 29.5431 345.272C28.3859 346.428 26.8164 347.078 25.1798 347.078Z" fill="url(#paint1_linear_1502_2)"/>
<path d="M66.4118 347.078H66.0588C64.4232 347.076 62.8551 346.426 61.699 345.27C60.5429 344.114 59.8936 342.547 59.8936 340.913V312.672H72.577V340.913C72.577 342.547 71.9277 344.114 70.7716 345.27C69.6155 346.426 68.0474 347.076 66.4118 347.078Z" fill="url(#paint2_linear_1502_2)"/>
<path d="M92.2333 347.078H91.8751C90.2413 347.074 88.6759 346.422 87.5221 345.266C86.3684 344.111 85.7205 342.545 85.7205 340.913V312.672H98.404V340.913C98.404 342.548 97.7538 344.116 96.5966 345.272C95.4394 346.428 93.8699 347.078 92.2333 347.078Z" fill="url(#paint3_linear_1502_2)"/>
<path d="M133.92 347.078H133.583C132.772 347.079 131.968 346.921 131.218 346.612C130.468 346.302 129.787 345.849 129.213 345.276C128.639 344.703 128.183 344.023 127.872 343.274C127.562 342.526 127.402 341.723 127.402 340.913V312.672H140.085V340.913C140.085 342.547 139.436 344.114 138.28 345.27C137.124 346.426 135.555 347.077 133.92 347.078Z" fill="url(#paint4_linear_1502_2)"/>
<path d="M83.5013 3.60623C82.8388 2.81863 82.0118 2.1854 81.0784 1.75097C80.145 1.31654 79.1277 1.09143 78.098 1.09143C77.0683 1.09143 76.051 1.31654 75.1176 1.75097C74.1842 2.1854 73.3572 2.81863 72.6947 3.60623C68.9517 7.81615 65.5295 13.3777 62.5351 19.2973C53.7337 36.8422 49.2634 56.7591 49.2634 76.9539V300.598H106.478V76.0564C106.478 56.4332 102.2 37.0559 93.8374 19.9063C89.9072 11.7696 86.2872 6.71024 83.5013 3.60623Z" fill="#EEEEEE"/>
<path d="M86.5492 28.449H68.4544C65.2059 28.449 62.5725 31.0802 62.5725 34.3258V36.2438C62.5725 39.4895 65.2059 42.1206 68.4544 42.1206H86.5492C89.7977 42.1206 92.4311 39.4895 92.4311 36.2438V34.3258C92.4311 31.0802 89.7977 28.449 86.5492 28.449Z" fill="#535461"/>
<g opacity="0.1">
<path opacity="0.1" d="M106.206 84.5991H49.5737V86.7949H106.206V84.5991Z" fill="black"/>
</g>
<defs>
<linearGradient id="paint0_linear_1502_2" x1="86619.3" y1="250946" x2="86619.3" y2="15220.2" gradientUnits="userSpaceOnUse">
<stop stop-color="#808080" stop-opacity="0.25"/>
<stop offset="0.54" stop-color="#808080" stop-opacity="0.12"/>
<stop offset="1" stop-color="#808080" stop-opacity="0.1"/>
</linearGradient>
<linearGradient id="paint1_linear_1502_2" x1="25.0087" y1="312.672" x2="25.0087" y2="347.078" gradientUnits="userSpaceOnUse">
<stop stop-color="#E0E0E0"/>
<stop offset="0.31" stop-color="#FCCC63"/>
<stop offset="0.77" stop-color="#F55F44"/>
</linearGradient>
<linearGradient id="paint2_linear_1502_2" x1="6833.5" y1="21924.4" x2="6833.5" y2="24140.1" gradientUnits="userSpaceOnUse">
<stop stop-color="#E0E0E0"/>
<stop offset="0.31" stop-color="#FCCC63"/>
<stop offset="0.77" stop-color="#F55F44"/>
</linearGradient>
<linearGradient id="paint3_linear_1502_2" x1="7471.96" y1="21924.4" x2="7471.96" y2="24140.1" gradientUnits="userSpaceOnUse">
<stop stop-color="#E0E0E0"/>
<stop offset="0.31" stop-color="#FCCC63"/>
<stop offset="0.77" stop-color="#F55F44"/>
</linearGradient>
<linearGradient id="paint4_linear_1502_2" x1="8502.3" y1="21924.4" x2="8502.3" y2="24140.2" gradientUnits="userSpaceOnUse">
<stop stop-color="#E0E0E0"/>
<stop offset="0.31" stop-color="#FCCC63"/>
<stop offset="0.77" stop-color="#F55F44"/>
</linearGradient>
</defs>
</svg>
